<svg width="513" height="513" viewBox="0 0 513 513" fill="none" xmlns="http://www.w3.org/2000/svg">
<path d="M256.001 512.001C205.369 512.001 155.874 496.987 113.775 468.858C71.6755 440.728 38.8632 400.746 19.487 353.968C0.110886 307.19 -4.95877 255.717 4.91916 206.057C14.7971 156.398 39.1789 110.783 74.9814 74.9809C122.991 26.9715 188.106 0 256.001 0C323.897 0 389.012 26.9715 437.021 74.9809C485.031 122.99 512.002 188.105 512.002 256.001C512.002 323.897 485.031 389.011 437.021 437.021C413.305 460.867 385.094 479.772 354.022 492.643C322.95 505.513 289.633 512.093 256.001 512.001V512.001Z" fill="#FFCC80"/>
<path d="M437.021 74.9809C432.847 70.8076 428.555 66.8009 424.143 62.9609C441.099 108.923 444.543 158.778 434.066 206.635C423.589 254.491 399.63 298.348 365.021 333.021C319.167 378.875 257.619 405.619 192.81 407.85C128 410.081 64.7587 387.634 15.8594 345.041C29.1628 380.921 50.3392 413.364 77.8314 439.982C105.324 466.601 138.432 486.719 174.723 498.858C211.014 510.996 249.565 514.846 287.539 510.124C325.514 505.403 361.948 492.229 394.161 471.573C426.374 450.917 453.548 423.304 473.685 390.763C493.821 358.222 506.408 321.582 510.52 283.536C514.631 245.491 510.163 207.007 497.444 170.916C484.725 134.824 464.078 102.042 437.021 74.9809V74.9809Z" fill="#FFB74D"/>
<path d="M272.001 352.001H240.001C237.88 352.001 235.845 351.158 234.345 349.658C232.844 348.158 232.001 346.123 232.001 344.001C232.001 341.879 232.844 339.844 234.345 338.344C235.845 336.844 237.88 336.001 240.001 336.001H272.001C274.123 336.001 276.158 336.844 277.658 338.344C279.159 339.844 280.001 341.879 280.001 344.001C280.001 346.123 279.159 348.158 277.658 349.658C276.158 351.158 274.123 352.001 272.001 352.001Z" fill="#EF5350"/>
<path d="M136.001 272.001C180.184 272.001 216.001 236.184 216.001 192.001C216.001 147.818 180.184 112.001 136.001 112.001C91.8187 112.001 56.0014 147.818 56.0014 192.001C56.0014 236.184 91.8187 272.001 136.001 272.001Z" fill="#E99797"/>
<path d="M376.001 272.001C420.184 272.001 456.001 236.184 456.001 192.001C456.001 147.818 420.184 112.001 376.001 112.001C331.819 112.001 296.001 147.818 296.001 192.001C296.001 236.184 331.819 272.001 376.001 272.001Z" fill="#E99797"/>
<path d="M182.089 126.672C185.603 142.432 184.261 158.887 178.241 173.869C172.22 188.852 161.804 201.66 148.362 210.607C134.921 219.555 119.085 224.221 102.94 223.993C86.7946 223.765 71.0968 218.653 57.9134 209.33C60.7204 222.021 66.5779 233.837 74.979 243.756C83.3801 253.674 94.0717 261.395 106.128 266.252C118.185 271.108 131.244 272.953 144.174 271.627C157.104 270.301 169.517 265.844 180.337 258.642C191.157 251.439 200.059 241.708 206.272 230.292C212.485 218.875 215.822 206.116 215.995 193.119C216.168 180.122 213.17 167.279 207.263 155.701C201.355 144.123 192.714 134.159 182.089 126.672V126.672Z" fill="#DC7474"/>
<path d="M422.089 126.672C425.603 142.432 424.261 158.887 418.241 173.869C412.22 188.852 401.804 201.66 388.362 210.607C374.921 219.555 359.085 224.221 342.94 223.993C326.795 223.765 311.097 218.653 297.913 209.33C300.72 222.021 306.578 233.837 314.979 243.756C323.38 253.674 334.072 261.395 346.128 266.252C358.185 271.108 371.244 272.953 384.174 271.627C397.104 270.301 409.517 265.844 420.337 258.642C431.157 251.439 440.059 241.708 446.272 230.292C452.485 218.875 455.822 206.116 455.995 193.119C456.168 180.122 453.17 167.279 447.263 155.701C441.355 144.123 432.714 134.159 422.089 126.672V126.672Z" fill="#DC7474"/>
<path d="M376.001 216.001C389.256 216.001 400.001 205.256 400.001 192.001C400.001 178.746 389.256 168.001 376.001 168.001C362.747 168.001 352.001 178.746 352.001 192.001C352.001 205.256 362.747 216.001 376.001 216.001Z" fill="#616161"/>
<path d="M368.001 192.001C372.42 192.001 376.001 188.419 376.001 184.001C376.001 179.583 372.42 176.001 368.001 176.001C363.583 176.001 360.001 179.583 360.001 184.001C360.001 188.419 363.583 192.001 368.001 192.001Z" fill="white"/>
<path d="M136.001 216.001C149.256 216.001 160.001 205.256 160.001 192.001C160.001 178.746 149.256 168.001 136.001 168.001C122.747 168.001 112.001 178.746 112.001 192.001C112.001 205.256 122.747 216.001 136.001 216.001Z" fill="#616161"/>
<path d="M128.001 192.001C132.42 192.001 136.001 188.419 136.001 184.001C136.001 179.583 132.42 176.001 128.001 176.001C123.583 176.001 120.001 179.583 120.001 184.001C120.001 188.419 123.583 192.001 128.001 192.001Z" fill="white"/>
<path d="M377.944 168.086C381.017 171.543 383.024 175.814 383.724 180.385C384.425 184.957 383.789 189.633 381.892 193.851C379.996 198.069 376.921 201.649 373.037 204.16C369.153 206.67 364.626 208.004 360.001 208.001C359.346 208.001 358.701 207.967 358.058 207.916C360.662 210.853 363.946 213.106 367.623 214.478C371.3 215.85 375.257 216.299 379.148 215.786C383.039 215.273 386.745 213.813 389.94 211.534C393.136 209.256 395.723 206.228 397.476 202.717C399.229 199.206 400.094 195.318 399.995 191.395C399.896 187.471 398.836 183.632 396.908 180.214C394.98 176.795 392.243 173.902 388.937 171.788C385.631 169.673 381.856 168.402 377.944 168.086V168.086Z" fill="#424242"/>
<path d="M137.944 168.086C141.017 171.543 143.024 175.814 143.724 180.385C144.425 184.957 143.789 189.633 141.893 193.851C139.996 198.069 136.921 201.649 133.037 204.16C129.153 206.67 124.626 208.004 120.001 208.001C119.346 208.001 118.701 207.967 118.058 207.916C120.662 210.853 123.946 213.106 127.623 214.478C131.3 215.85 135.257 216.299 139.148 215.786C143.039 215.273 146.745 213.813 149.94 211.534C153.136 209.256 155.723 206.228 157.476 202.717C159.229 199.206 160.094 195.318 159.995 191.395C159.896 187.471 158.836 183.632 156.908 180.214C154.98 176.795 152.243 173.902 148.937 171.788C145.631 169.673 141.856 168.402 137.944 168.086V168.086Z" fill="#424242"/>
<path d="M56.0014 288.001C69.2563 288.001 80.0014 277.256 80.0014 264.001C80.0014 250.746 69.2563 240.001 56.0014 240.001C42.7466 240.001 32.0014 250.746 32.0014 264.001C32.0014 277.256 42.7466 288.001 56.0014 288.001Z" fill="#FFE4C0"/>
<path d="M456.001 288.001C469.256 288.001 480.001 277.256 480.001 264.001C480.001 250.746 469.256 240.001 456.001 240.001C442.747 240.001 432.001 250.746 432.001 264.001C432.001 277.256 442.747 288.001 456.001 288.001Z" fill="#FFE4C0"/>
</svg>
