<svg width="512" height="512" viewBox="0 0 512 512" fill="none" xmlns="http://www.w3.org/2000/svg">
<g clip-path="url(#clip0)">
<path d="M256 512C205.368 512 155.873 496.986 113.773 468.857C71.6741 440.727 38.8617 400.745 19.4856 353.967C0.109421 307.189 -4.96024 255.716 4.91769 206.056C14.7956 156.397 39.1775 110.782 74.98 74.98C122.989 26.9705 188.104 -0.000976562 256 -0.000976562C323.896 -0.000976562 389.01 26.9705 437.02 74.98C485.029 122.989 512.001 188.104 512.001 256C512.001 323.896 485.029 389.01 437.02 437.02C413.303 460.866 385.092 479.771 354.02 492.642C322.948 505.512 289.632 512.092 256 512V512Z" fill="#FFCC80"/>
<path d="M437.02 74.98C432.846 70.8066 428.553 66.8 424.142 62.96C441.098 108.922 444.541 158.777 434.064 206.634C423.587 254.49 399.629 298.347 365.02 333.02C319.166 378.874 257.618 405.618 192.808 407.849C127.999 410.08 64.7573 387.633 15.858 345.04C29.1614 380.92 50.3378 413.363 77.83 439.981C105.322 466.6 138.431 486.718 174.722 498.857C211.013 510.995 249.563 514.845 287.538 510.123C325.513 505.402 361.946 492.228 394.16 471.572C426.373 450.916 453.547 423.303 473.684 390.762C493.82 358.221 506.407 321.581 510.518 283.535C514.63 245.49 510.162 207.006 497.443 170.915C484.723 134.823 464.077 102.041 437.02 74.98V74.98Z" fill="#FFB74D"/>
<path d="M56 288C69.2548 288 80 277.255 80 264C80 250.745 69.2548 240 56 240C42.7452 240 32 250.745 32 264C32 277.255 42.7452 288 56 288Z" fill="#FFE4C0"/>
<path d="M392 184C354.928 184 320.357 181.2 304.736 147.353C303.847 145.426 303.759 143.226 304.493 141.235C305.226 139.243 306.721 137.625 308.647 136.736C310.574 135.847 312.774 135.759 314.766 136.493C316.757 137.226 318.375 138.721 319.264 140.647C329.936 163.77 352.132 168 392 168C394.122 168 396.157 168.843 397.657 170.343C399.157 171.843 400 173.878 400 176C400 178.122 399.157 180.157 397.657 181.657C396.157 183.157 394.122 184 392 184V184Z" fill="#616161"/>
<path d="M120 184C117.878 184 115.843 183.157 114.343 181.657C112.843 180.157 112 178.122 112 176C112 173.878 112.843 171.843 114.343 170.343C115.843 168.843 117.878 168 120 168C159.868 168 182.064 163.77 192.736 140.647C193.625 138.721 195.243 137.226 197.235 136.493C199.226 135.759 201.426 135.847 203.353 136.736C205.28 137.625 206.774 139.243 207.507 141.235C208.241 143.226 208.153 145.427 207.264 147.353C191.643 181.2 157.072 184 120 184V184Z" fill="#616161"/>
<path d="M352 392H160C153.637 391.993 147.537 389.462 143.038 384.962C138.538 380.463 136.007 374.363 136 368C136.021 348.911 143.614 330.61 157.112 317.112C170.61 303.614 188.911 296.021 208 296H304C323.089 296.021 341.39 303.614 354.888 317.112C368.386 330.61 375.979 348.911 376 368C375.993 374.363 373.462 380.463 368.962 384.962C364.463 389.462 358.363 391.993 352 392V392Z" fill="#E27484"/>
<path d="M352 392H160C153.637 391.993 147.537 389.462 143.038 384.962C138.538 380.463 136.007 374.363 136 368C136.021 348.911 143.614 330.61 157.112 317.112C170.61 303.614 188.911 296.021 208 296H304C323.089 296.021 341.39 303.614 354.888 317.112C368.386 330.61 375.979 348.911 376 368C375.993 374.363 373.462 380.463 368.962 384.962C364.463 389.462 358.363 391.993 352 392V392Z" fill="#E27484"/>
<path d="M160.455 392C162.444 374.409 170.834 358.165 184.028 346.363C197.222 334.56 214.297 328.024 232 328H328C343.648 327.985 358.87 333.095 371.339 342.549C366.157 328.878 356.942 317.106 344.915 308.793C332.889 300.479 318.62 296.018 304 296H208C188.911 296.021 170.61 303.614 157.112 317.112C143.614 330.61 136.021 348.911 136 368C136.007 374.363 138.538 380.463 143.038 384.962C147.537 389.462 153.637 391.993 160 392H160.455Z" fill="#D8667C"/>
</g>
<defs>
<clipPath id="clip0">
<rect width="512" height="512" fill="white"/>
</clipPath>
</defs>
</svg>
